<?xml version="1.0" encoding="utf-8"?>
<!-- Generator: Adobe Illustrator 19.0.0, SVG Export Plug-In . SVG Version: 6.00 Build 0)  -->
<svg version="1.1" id="layer" xmlns="http://www.w3.org/2000/svg" xmlns:xlink="http://www.w3.org/1999/xlink" x="0px" y="0px"
	 viewBox="-153 -46 652 652" style="enable-background:new -153 -46 652 652;" xml:space="preserve">
<style type="text/css">
	.st0{fill:currentColor;}
</style>
<path id="XMLID_1_" class="st0" d="M-130.5,329.6l76.4-107.3h48.6l35.5,107.3H-5.8l-24.6-80.2h-5.3l-56.6,80.2H-130.5z M-22.9,305.3
	c0-10.1-8.3-18.2-18.5-18.2c-10.2,0-18.6,8.2-18.6,18.2c0,10.1,8.3,18.2,18.6,18.2C-31.2,323.5-22.9,315.4-22.9,305.3 M133.7,329.6
	c37.4,0,43-24.7,44.2-29.2c1.2-4.5,7.7-32.2,9.2-52.7c1.6-20.5-19.2-25.4-36.6-25.4H54.9L34.5,329.6H133.7z M81.8,249.6h54.9
	c10.4,0,15.8,2.3,15,11.8c-0.8,9.5-3.4,21.4-4.8,27.8c-1.5,6.4-4.4,12.9-15.2,12.7H72.1L81.8,249.6z M183.5,301.5
	c-3.4,25.4,17.8,27.8,24.3,28h79c30,0,35.7-17.4,35.7-17.4s8.9-24.6,12.4-57.6c3.5-33-29.2-32.2-29.2-32.2h-76.4
	c-19.9,0-28.8,11.1-32.6,17.1C192,246.6,183.5,301.5,183.5,301.5 M224,257.6c0,0,2.5-9.1,13.5-9.1h51.2c9.1,0,15.6,2.4,14.4,11
	c-1.5,10.1-7.3,31.8-7.3,31.8c-1.2,4.8-4,11.8-18.4,11.8h-50c0,0-11.6,0.4-10-12.5C219,277.6,224,257.6,224,257.6 M338.1,249.6h46.3
	l-14.3,79.2h33.6l15.1-79.2h45.5l5.2-27.3H342.9L338.1,249.6z"/>
</svg>
