<?xml version="1.0" encoding="UTF-8" standalone="no" ?>
<!DOCTYPE svg PUBLIC "-//W3C//DTD SVG 1.1//EN" "http://www.w3.org/Graphics/SVG/1.1/DTD/svg11.dtd">
<svg xmlns="http://www.w3.org/2000/svg" xmlns:xlink="http://www.w3.org/1999/xlink" version="1.1"  viewBox="0 0 1280 1024" xml:space="preserve">
<desc>Created with Fabric.js 5.3.0</desc>
<defs>
</defs>
<g transform="matrix(1 0 0 1 640 512)" id="background-logo"  >
<rect style="stroke: none; stroke-width: 0; stroke-dasharray: none; stroke-linecap: butt; stroke-dashoffset: 0; stroke-linejoin: miter; stroke-miterlimit: 4; fill: rgb(255,255,255); fill-opacity: 0; fill-rule: nonzero; opacity: 1;"  paint-order="stroke"  x="-640" y="-512" rx="0" ry="0" />
</g>
<g transform="matrix(1.9211538461538462 0 0 1.9211538461538462 619.476816448779 424.98509999577243)" id="logo-logo"  >
<g style=""  paint-order="stroke"   >
		<g transform="matrix(1.4609386355429548 0 0 1.4609386355429546 60.678908309311225 0)"  >
<path style="stroke: none; stroke-width: 1; stroke-dasharray: none; stroke-linecap: butt; stroke-dashoffset: 0; stroke-linejoin: miter; stroke-miterlimit: 4; fill: currentColor; fill-rule: nonzero; opacity: 1;"  paint-order="stroke"  transform=" translate(-229.02063156807003, -149.99560613368982)" d="M 252.71 164.5 C 234.34 194.5 208.84 212.32 195.76 204.31 C 188.79999999999998 200.05 186.76 189.33 189.14 175.71 C 188.33999999999997 185.24 190.39 192.57 195.6 195.76000000000002 C 207.13 202.82000000000002 229.68 186.98000000000002 245.98 160.38000000000002 C 262.27 133.78000000000003 266.13 106.49000000000002 254.6 99.43000000000002 C 249.39 96.24000000000002 241.92 97.74000000000002 233.79999999999998 102.78000000000002 C 244.85 94.47000000000001 255.32 91.42000000000002 262.28 95.68000000000002 C 275.35999999999996 103.69000000000003 271.07 134.50000000000003 252.69999999999996 164.5 Z M 232.84 109.28 C 238.95000000000002 105.1 244.33 103.81 247.78 106.35 C 255.41 111.97 250.69 134.17 237.23 155.93 C 223.76999999999998 177.69 206.67999999999998 190.78 199.04 185.16 C 195.59 182.62 194.67 176.69 195.94 168.94 C 193.26 180.02 193.92 188.71 198.53 192.1 C 207.19 198.48 226.51 183.75 241.68 159.20999999999998 C 256.86 134.67 262.14 109.60999999999999 253.48000000000002 103.22999999999999 C 248.87 99.83999999999999 241.25000000000003 102.41999999999999 232.83 109.27999999999999 Z" stroke-linecap="round" />
</g>
		<g transform="matrix(1.4609386355429548 0 0 1.4609386355429546 100.99025096273635 -42.192793318606306)"  >
<path style="stroke: none; stroke-width: 1; stroke-dasharray: none; stroke-linecap: butt; stroke-dashoffset: 0; stroke-linejoin: miter; stroke-miterlimit: 4; fill: currentColor; fill-rule: nonzero; opacity: 1;"  paint-order="stroke"  transform=" translate(-256.6134008142906, -121.11499999999998)" d="M 245.04 145.15 C 253.91 126.66000000000001 255.76999999999998 110.16 248.76999999999998 105.01 C 247.96999999999997 104.42 247.08999999999997 103.99000000000001 246.13 103.72 C 247.03 103.51 247.87 103.41 248.66 103.41 C 250.17 103.41 251.46 103.8 252.51 104.57 C 258.42 108.91999999999999 256.98 125.99 246.69 146.79999999999998 L 245.04 145.14999999999998 Z M 261.43 97.1 C 259.62 95.99 257.47 95.42999999999999 255.05 95.42999999999999 C 253.42000000000002 95.42999999999999 251.68 95.67999999999999 249.85000000000002 96.16 C 251.93000000000004 96.36999999999999 253.82000000000002 96.97999999999999 255.48000000000002 98.00999999999999 C 261.66 101.78999999999999 264.11 110.6 262.38 122.80999999999999 C 261.82 126.76999999999998 260.83 130.95999999999998 259.46999999999997 135.26999999999998 L 263.21 139.01 C 265.37 132.95999999999998 266.88 127.08999999999999 267.64 121.60999999999999 C 269.33 109.48999999999998 267.06 100.54999999999998 261.41999999999996 97.09999999999998 Z" stroke-linecap="round" />
</g>
		<g transform="matrix(1.4609386355429548 0 0 1.4609386355429546 -17.96755586327174 -11.520386665381949)"  >
<path style="stroke: none; stroke-width: 1; stroke-dasharray: none; stroke-linecap: butt; stroke-dashoffset: 0; stroke-linejoin: miter; stroke-miterlimit: 4; fill: currentColor; fill-rule: nonzero; opacity: 1;"  paint-order="stroke"  transform=" translate(-175.1877995385754, -142.10999999999999)" d="M 105.13 113.91 L 245.22 113.91 C 245.22 113.91 246.45 124.57 234.45 135.57999999999998 C 219.01999999999998 149.73999999999998 206.82999999999998 158.79 219.42999999999998 170.30999999999997 C 219.42999999999998 170.30999999999997 206.82999999999998 168.21999999999997 206.82999999999998 158.78999999999996 C 206.82999999999998 151.82999999999996 211.60999999999999 145.88999999999996 219.60999999999999 139.14999999999998 C 226.61999999999998 133.24999999999997 234.30999999999997 127.61999999999998 235.39 120.25999999999998 L 118.14999999999999 120.25999999999998 C 118.14999999999999 120.25999999999998 105.11999999999999 120.53999999999998 105.11999999999999 113.90999999999998 Z M 114.35 125.77 C 114.35 132.4 127.36999999999999 132.12 127.36999999999999 132.12 L 220.41 132.12 C 222.9 130.03 225.32 127.92 227.18 125.77000000000001 L 114.36000000000001 125.77000000000001 Z M 141.48 143.98 L 207.79 143.98 C 209.60999999999999 141.70999999999998 211.73 139.59 213.9 137.63 L 128.45 137.63 C 128.45 144.26 141.48 143.98 141.48 143.98 Z M 155.59 155.84 L 202.15 155.84 C 202.49 153.6 203.21 151.49 204.21 149.49 L 142.56 149.49 C 142.56 156.12 155.59 155.84 155.59 155.84 Z M 161.58 161.36 C 161.58 167.99 174.61 167.71 174.61 167.71 L 205.01000000000002 167.71 C 203.61 165.96 202.57000000000002 163.85 202.15 161.36 L 161.58 161.36 Z" stroke-linecap="round" />
</g>
		<g transform="matrix(1.4609386355429548 0 0 1.4609386355429546 -27.022160664526837 -13.42691158476552)"  >
<path style="stroke: none; stroke-width: 1; stroke-dasharray: none; stroke-linecap: butt; stroke-dashoffset: 0; stroke-linejoin: miter; stroke-miterlimit: 4; fill: currentColor; fill-rule: nonzero; opacity: 1;"  paint-order="stroke"  transform=" translate(-168.99, -140.805)" d="M 226.99 118.6 L 117.93 118.6 C 114.73 118.6 109.18 117.92999999999999 107.38000000000001 115.58 L 230.60000000000002 115.58 L 226.99 118.6 Z M 199.53 163.02 L 163.8 163.02 C 164.49 163.94 165.81 164.68 167.76000000000002 165.21 C 170.53000000000003 165.97 173.52 166.03 174.37000000000003 166.03 L 195.92000000000004 166.03 C 195.92000000000004 166.03 199.53000000000006 163.01 199.53000000000006 163.01 Z M 197.63 151.16 L 144.82 151.16 C 146.62 153.5 152.18 154.18 155.37 154.18 L 194.03 154.18 C 194.03 154.18 197.64000000000001 151.16 197.64000000000001 151.16 Z M 205.47 139.3 L 130.7 139.3 C 132.5 141.64000000000001 138.06 142.32000000000002 141.25 142.32000000000002 L 201.86 142.32000000000002 C 201.86 142.32000000000002 205.47000000000003 139.3 205.47000000000003 139.3 Z M 215.48 127.44 L 116.57999999999998 127.44 C 117.26999999999998 128.35999999999999 118.58999999999999 129.1 120.53999999999998 129.63 C 123.29999999999998 130.39 126.28999999999998 130.45 127.13999999999997 130.45 L 211.87999999999997 130.45 C 211.87999999999997 130.45 215.48999999999998 127.42999999999999 215.48999999999998 127.42999999999999 Z" stroke-linecap="round" />
</g>
</g>
</g>
<g transform="matrix(1.9211538461538462 0 0 1.9211538461538462 643.8242150076488 672.1072367946236)" id="text-logo"  >
<g style=""  paint-order="stroke"   >
		<g transform="matrix(1 0 0 1 -5.684342e-14 0)" id="text-logo-path-0"  >
<path style="stroke: none; stroke-width: 0; stroke-dasharray: none; stroke-linecap: butt; stroke-dashoffset: 0; stroke-linejoin: miter; stroke-miterlimit: 4; fill: currentColor; fill-rule: nonzero; opacity: 1;"  paint-order="stroke"  transform=" translate(-285.955, 15.634999999999998)" d="M 28.98 -31.27 L 21.44 -31.27 L 21.44 -13.25 L 21.18 -13.25 L 8.87 -31.27 L 2.37 -31.27 L 2.37 0 L 9.93 0 L 9.93 -18.05 L 10.12 -18.05 L 22.57 0 L 28.98 0 Z M 44.71 -31.27 L 37.16 -31.27 L 37.16 0 L 44.71 0 Z M 52.89 0 L 74.69 0 L 74.69 -6.14 L 60.45 -6.14 L 60.45 -12.57 L 73.58 -12.57 L 73.58 -18.72 L 60.45 -18.72 L 60.45 -25.13 L 74.69 -25.13 L 74.69 -31.27 L 52.89 -31.27 Z M 82.87 0 L 90.43 0 L 90.43 -10.7 L 94.3 -10.7 L 100.02 0 L 108.26 0 L 101.77 -11.91 C 105.21 -13.47 107.19 -16.54 107.19 -20.86 C 107.19 -27.29 102.81 -31.27 95.79 -31.27 L 82.87 -31.27 Z M 90.43 -16.66 L 90.43 -25.18 L 94.15 -25.18 C 97.54 -25.18 99.36 -23.76 99.36 -20.86 C 99.36 -17.96 97.54 -16.66 94.15 -16.66 Z M 126.44 -25.13 L 135.94 -25.13 L 135.94 0 L 143.39 0 L 143.39 -25.13 L 152.87 -25.13 L 152.87 -31.27 L 126.44 -31.27 Z M 160.02 0 L 167.58 0 L 167.58 -10.7 L 171.46 -10.7 L 177.17 0 L 185.42 0 L 178.93 -11.91 C 182.36 -13.47 184.35 -16.54 184.35 -20.86 C 184.35 -27.29 179.97 -31.27 172.94 -31.27 L 160.02 -31.27 Z M 167.58 -16.66 L 167.58 -25.18 L 171.31 -25.18 C 174.7 -25.18 176.52 -23.76 176.52 -20.86 C 176.52 -17.96 174.7 -16.66 171.31 -16.66 Z M 198.69 0 L 200.75 -6.57 L 211.55 -6.57 L 213.61 0 L 221.73 0 L 211.18 -31.27 L 201.12 -31.27 L 190.57 0 Z M 202.55 -12.31 L 206.02 -23.39 L 206.27 -23.39 L 209.75 -12.31 Z M 255.16 -31.27 L 247.62 -31.27 L 247.62 -13.25 L 247.36 -13.25 L 235.05 -31.27 L 228.55 -31.27 L 228.55 0 L 236.11 0 L 236.11 -18.05 L 236.31 -18.05 L 248.75 0 L 255.16 0 Z M 280.24 -21.9 L 287.48 -21.9 C 287.42 -27.75 282.76 -31.7 275.49 -31.7 C 268.35 -31.7 263.2 -27.81 263.25 -21.99 C 263.23 -17.24 266.56 -14.57 271.96 -13.33 L 275.23 -12.57 C 278.67 -11.77 280.21 -10.84 280.24 -9.09 C 280.21 -7.18 278.42 -5.85 275.39 -5.85 C 272.04 -5.85 269.84 -7.41 269.67 -10.41 L 262.44 -10.41 C 262.53 -3.1 267.61 0.4 275.48 0.4 C 283.26 0.4 287.88 -3.13 287.91 -9.07 C 287.88 -14.06 284.5 -17.12 278.33 -18.48 L 275.64 -19.09 C 272.8 -19.7 271 -20.64 271.06 -22.51 C 271.08 -24.22 272.54 -25.45 275.48 -25.45 C 278.42 -25.45 280.04 -24.13 280.24 -21.9 Z M 295.18 0 L 302.74 0 L 302.74 -9.71 L 307.87 -9.71 C 315.03 -9.71 319.5 -13.96 319.5 -20.45 C 319.5 -26.88 315.12 -31.27 308.1 -31.27 L 295.18 -31.27 Z M 302.74 -15.67 L 302.74 -25.18 L 306.46 -25.18 C 309.85 -25.18 311.67 -23.35 311.67 -20.45 C 311.67 -17.56 309.85 -15.67 306.46 -15.67 Z M 356.17 -15.64 C 356.17 -25.97 349.64 -31.7 341.24 -31.7 C 332.81 -31.7 326.32 -25.97 326.32 -15.64 C 326.32 -5.34 332.81 0.43 341.24 0.43 C 349.64 0.43 356.17 -5.3 356.17 -15.64 Z M 348.44 -15.64 C 348.44 -9.51 345.76 -6.2 341.24 -6.2 C 336.73 -6.2 334.03 -9.51 334.03 -15.64 C 334.03 -21.76 336.73 -25.07 341.24 -25.07 C 345.76 -25.07 348.44 -21.76 348.44 -15.64 Z M 364.01 0 L 371.57 0 L 371.57 -10.7 L 375.45 -10.7 L 381.16 0 L 389.4 0 L 382.91 -11.91 C 386.35 -13.47 388.33 -16.54 388.33 -20.86 C 388.33 -27.29 383.95 -31.27 376.93 -31.27 L 364.01 -31.27 Z M 371.57 -16.66 L 371.57 -25.18 L 375.29 -25.18 C 378.68 -25.18 380.5 -23.76 380.5 -20.86 C 380.5 -17.96 378.68 -16.66 375.29 -16.66 Z M 394.89 -25.13 L 404.39 -25.13 L 404.39 0 L 411.84 0 L 411.84 -25.13 L 421.32 -25.13 L 421.32 -31.27 L 394.89 -31.27 Z M 431.33 0 L 433.39 -6.57 L 444.18 -6.57 L 446.25 0 L 454.37 0 L 443.82 -31.27 L 433.76 -31.27 L 423.2 0 Z M 435.19 -12.31 L 438.66 -23.39 L 438.9 -23.39 L 442.38 -12.31 Z M 456.25 -25.13 L 465.75 -25.13 L 465.75 0 L 473.2 0 L 473.2 -25.13 L 482.68 -25.13 L 482.68 -31.27 L 456.25 -31.27 Z M 497.39 -31.27 L 489.83 -31.27 L 489.83 0 L 497.39 0 Z M 535.08 -15.64 C 535.08 -25.97 528.55 -31.7 520.15 -31.7 C 511.72 -31.7 505.23 -25.97 505.23 -15.64 C 505.23 -5.34 511.72 0.43 520.15 0.43 C 528.55 0.43 535.08 -5.3 535.08 -15.64 Z M 527.36 -15.64 C 527.36 -9.51 524.67 -6.2 520.15 -6.2 C 515.65 -6.2 512.94 -9.51 512.94 -15.64 C 512.94 -21.76 515.65 -25.07 520.15 -25.07 C 524.67 -25.07 527.36 -21.76 527.36 -15.64 Z M 569.54 -31.27 L 561.99 -31.27 L 561.99 -13.25 L 561.73 -13.25 L 549.43 -31.27 L 542.92 -31.27 L 542.92 0 L 550.48 0 L 550.48 -18.05 L 550.68 -18.05 L 563.12 0 L 569.54 0 Z" stroke-linecap="round" />
</g>
</g>
</g>
</svg>