<?xml version="1.0" encoding="UTF-8" standalone="no" ?>
<!DOCTYPE svg PUBLIC "-//W3C//DTD SVG 1.1//EN" "http://www.w3.org/Graphics/SVG/1.1/DTD/svg11.dtd">
<svg xmlns="http://www.w3.org/2000/svg" xmlns:xlink="http://www.w3.org/1999/xlink" version="1.1" viewBox="0 0 1280 1024" xml:space="preserve">
<desc>Created with Fabric.js 5.3.0</desc>
<defs>
</defs>
<g transform="matrix(1 0 0 1 640 512)" id="background-logo"  >
<rect style="stroke: none; stroke-width: 0; stroke-dasharray: none; stroke-linecap: butt; stroke-dashoffset: 0; stroke-linejoin: miter; stroke-miterlimit: 4; fill: rgb(255,255,255); fill-rule: nonzero; opacity: 1;"  paint-order="stroke"  x="-640" y="-512" rx="0" ry="0" />
</g>
<g transform="matrix(1.9211538461538462 0 0 1.9211538461538462 619.476816448779 424.98509999577243)" id="logo-logo"  >
<g style=""  paint-order="stroke"   >
		<g transform="matrix(1.4609386355429548 0 0 1.4609386355429546 60.678908309311225 0)"  >
<path style="stroke: none; stroke-width: 1; stroke-dasharray: none; stroke-linecap: butt; stroke-dashoffset: 0; stroke-linejoin: miter; stroke-miterlimit: 4; fill: currentColor; fill-rule: nonzero; opacity: 1;"  paint-order="stroke"  transform=" translate(-229.02063156807003, -149.99560613368982)" d="M 252.71 164.5 C 234.34 194.5 208.84 212.32 195.76 204.31 C 188.79999999999998 200.05 186.76 189.33 189.14 175.71 C 188.33999999999997 185.24 190.39 192.57 195.6 195.76000000000002 C 207.13 202.82000000000002 229.68 186.98000000000002 245.98 160.38000000000002 C 262.27 133.78000000000003 266.13 106.49000000000002 254.6 99.43000000000002 C 249.39 96.24000000000002 241.92 97.74000000000002 233.79999999999998 102.78000000000002 C 244.85 94.47000000000001 255.32 91.42000000000002 262.28 95.68000000000002 C 275.35999999999996 103.69000000000003 271.07 134.50000000000003 252.69999999999996 164.5 Z M 232.84 109.28 C 238.95000000000002 105.1 244.33 103.81 247.78 106.35 C 255.41 111.97 250.69 134.17 237.23 155.93 C 223.76999999999998 177.69 206.67999999999998 190.78 199.04 185.16 C 195.59 182.62 194.67 176.69 195.94 168.94 C 193.26 180.02 193.92 188.71 198.53 192.1 C 207.19 198.48 226.51 183.75 241.68 159.20999999999998 C 256.86 134.67 262.14 109.60999999999999 253.48000000000002 103.22999999999999 C 248.87 99.83999999999999 241.25000000000003 102.41999999999999 232.83 109.27999999999999 Z" stroke-linecap="round" />
</g>
		<g transform="matrix(1.4609386355429548 0 0 1.4609386355429546 100.99025096273635 -42.192793318606306)"  >
<path style="stroke: none; stroke-width: 1; stroke-dasharray: none; stroke-linecap: butt; stroke-dashoffset: 0; stroke-linejoin: miter; stroke-miterlimit: 4; fill: currentColor; fill-rule: nonzero; opacity: 1;"  paint-order="stroke"  transform=" translate(-256.6134008142906, -121.11499999999998)" d="M 245.04 145.15 C 253.91 126.66000000000001 255.76999999999998 110.16 248.76999999999998 105.01 C 247.96999999999997 104.42 247.08999999999997 103.99000000000001 246.13 103.72 C 247.03 103.51 247.87 103.41 248.66 103.41 C 250.17 103.41 251.46 103.8 252.51 104.57 C 258.42 108.91999999999999 256.98 125.99 246.69 146.79999999999998 L 245.04 145.14999999999998 Z M 261.43 97.1 C 259.62 95.99 257.47 95.42999999999999 255.05 95.42999999999999 C 253.42000000000002 95.42999999999999 251.68 95.67999999999999 249.85000000000002 96.16 C 251.93000000000004 96.36999999999999 253.82000000000002 96.97999999999999 255.48000000000002 98.00999999999999 C 261.66 101.78999999999999 264.11 110.6 262.38 122.80999999999999 C 261.82 126.76999999999998 260.83 130.95999999999998 259.46999999999997 135.26999999999998 L 263.21 139.01 C 265.37 132.95999999999998 266.88 127.08999999999999 267.64 121.60999999999999 C 269.33 109.48999999999998 267.06 100.54999999999998 261.41999999999996 97.09999999999998 Z" stroke-linecap="round" />
</g>
		<g transform="matrix(1.4609386355429548 0 0 1.4609386355429546 -17.96755586327174 -11.520386665381949)"  >
<path style="stroke: none; stroke-width: 1; stroke-dasharray: none; stroke-linecap: butt; stroke-dashoffset: 0; stroke-linejoin: miter; stroke-miterlimit: 4; fill: currentColor; fill-rule: nonzero; opacity: 1;"  paint-order="stroke"  transform=" translate(-175.1877995385754, -142.10999999999999)" d="M 105.13 113.91 L 245.22 113.91 C 245.22 113.91 246.45 124.57 234.45 135.57999999999998 C 219.01999999999998 149.73999999999998 206.82999999999998 158.79 219.42999999999998 170.30999999999997 C 219.42999999999998 170.30999999999997 206.82999999999998 168.21999999999997 206.82999999999998 158.78999999999996 C 206.82999999999998 151.82999999999996 211.60999999999999 145.88999999999996 219.60999999999999 139.14999999999998 C 226.61999999999998 133.24999999999997 234.30999999999997 127.61999999999998 235.39 120.25999999999998 L 118.14999999999999 120.25999999999998 C 118.14999999999999 120.25999999999998 105.11999999999999 120.53999999999998 105.11999999999999 113.90999999999998 Z M 114.35 125.77 C 114.35 132.4 127.36999999999999 132.12 127.36999999999999 132.12 L 220.41 132.12 C 222.9 130.03 225.32 127.92 227.18 125.77000000000001 L 114.36000000000001 125.77000000000001 Z M 141.48 143.98 L 207.79 143.98 C 209.60999999999999 141.70999999999998 211.73 139.59 213.9 137.63 L 128.45 137.63 C 128.45 144.26 141.48 143.98 141.48 143.98 Z M 155.59 155.84 L 202.15 155.84 C 202.49 153.6 203.21 151.49 204.21 149.49 L 142.56 149.49 C 142.56 156.12 155.59 155.84 155.59 155.84 Z M 161.58 161.36 C 161.58 167.99 174.61 167.71 174.61 167.71 L 205.01000000000002 167.71 C 203.61 165.96 202.57000000000002 163.85 202.15 161.36 L 161.58 161.36 Z" stroke-linecap="round" />
</g>
		<g transform="matrix(1.4609386355429548 0 0 1.4609386355429546 -27.022160664526837 -13.42691158476552)"  >
<path style="stroke: none; stroke-width: 1; stroke-dasharray: none; stroke-linecap: butt; stroke-dashoffset: 0; stroke-linejoin: miter; stroke-miterlimit: 4; fill: currentColor; fill-rule: nonzero; opacity: 1;"  paint-order="stroke"  transform=" translate(-168.99, -140.805)" d="M 226.99 118.6 L 117.93 118.6 C 114.73 118.6 109.18 117.92999999999999 107.38000000000001 115.58 L 230.60000000000002 115.58 L 226.99 118.6 Z M 199.53 163.02 L 163.8 163.02 C 164.49 163.94 165.81 164.68 167.76000000000002 165.21 C 170.53000000000003 165.97 173.52 166.03 174.37000000000003 166.03 L 195.92000000000004 166.03 C 195.92000000000004 166.03 199.53000000000006 163.01 199.53000000000006 163.01 Z M 197.63 151.16 L 144.82 151.16 C 146.62 153.5 152.18 154.18 155.37 154.18 L 194.03 154.18 C 194.03 154.18 197.64000000000001 151.16 197.64000000000001 151.16 Z M 205.47 139.3 L 130.7 139.3 C 132.5 141.64000000000001 138.06 142.32000000000002 141.25 142.32000000000002 L 201.86 142.32000000000002 C 201.86 142.32000000000002 205.47000000000003 139.3 205.47000000000003 139.3 Z M 215.48 127.44 L 116.57999999999998 127.44 C 117.26999999999998 128.35999999999999 118.58999999999999 129.1 120.53999999999998 129.63 C 123.29999999999998 130.39 126.28999999999998 130.45 127.13999999999997 130.45 L 211.87999999999997 130.45 C 211.87999999999997 130.45 215.48999999999998 127.42999999999999 215.48999999999998 127.42999999999999 Z" stroke-linecap="round" />
</g>
</g>
</g>
</svg>